<?xml version="1.0" standalone="no"?>
<svg width="600" height="600" viewBox="0 0 600 600" xmlns="http://www.w3.org/2000/svg">
  <style>
    .text { font: bold 300px sans-serif; fill: white; }
  </style>
  <g transform="translate(300,300)">
    <path d="M86.9,-128.4C130.6,-107.2,196.3,-113.4,225.2,-90.9C254.2,-68.3,246.4,-17,236.7,32.4C227,81.8,215.6,129.3,185.3,156.1C155.1,182.8,106.1,188.8,61.4,195.8C16.7,202.8,-23.8,210.8,-49,191.9C-74.3,173.1,-84.4,127.5,-96.5,94.3C-108.5,61.1,-122.6,40.4,-133.6,14.5C-144.7,-11.4,-152.9,-42.5,-152.1,-80C-151.3,-117.4,-141.6,-161.4,-114.8,-190.3C-87.9,-219.2,-44,-233.1,-11.2,-215.7C21.6,-198.3,43.3,-149.6,86.9,-128.4Z" fill="#000000"/>
    <text class="text" y="135" x="-60">T</text>
  </g>
</svg>
  